<?xml version="1.0" encoding="UTF-8"?><!DOCTYPE svg PUBLIC "-//W3C//DTD SVG 1.1//EN" "http://www.w3.org/Graphics/SVG/1.1/DTD/svg11.dtd"><svg xmlns="http://www.w3.org/2000/svg" xmlns:xlink="http://www.w3.org/1999/xlink"><symbol id="icon-wesolar-text-logo"><g fill="none"><path d="M31.02.53l-7.45 21.69h-3.09L15.63 8.1l-4.85 14.12H7.69L.24.53h3.09l7.26 21.1 4.85-14.12L13.03.53h3.09l7.26 21.1L27.4 9.89c1.17-3.43 1.64-6.55 1.45-9.36h2.17zm6.48 21.25c5.78 0 9.52-.28 13.16-1.73v2.16H34.41V.52H50.2v2.16C47.08 1.38 43.37.95 37.5.95v8.84h11.06v.43H37.5v11.56zm16.4-.74l.25-2.16c3.49 2.16 6.43 3.21 8.78 3.21 3.83 0 6.43-2.1 5.75-5.22-1.24-5.38-14.62-6.24-14.99-11.43-.25-3.65 3.99-5.41 8.87-5.41 2.35 0 5.01.37 7.76 1.21l-.28 2.16C67.14 1.64 64.08.53 61.91.53c-3.58 0-5.99 1.24-5.84 3.46.31 4.33 15.02 5.87 15.45 12.21.31 4.17-3.77 6.43-9.15 6.43-2.56 0-5.47-.53-8.47-1.58v-.01zm20.73-9.61C74.63 4.91 78 0 84.73 0c6.73 0 10.1 4.91 10.1 11.43 0 6.12-3.37 11.31-10.1 11.31-6.73 0-10.1-5.19-10.1-11.31zm17.12 0c0-5.38-1.79-11-7.01-11s-7.01 5.62-7.01 11 1.92 10.88 7.01 10.88 7.01-5.47 7.01-10.88zm6.64 10.79V.53h3.09v21.29c4.79 0 7.82-.4 10.88-1.76v2.16H98.39zm16.24 0L123.28.53h3.09l8.68 21.69h-1.7c-.37-2.38-.74-4.94-1.88-7.85l-.68-1.73h-9.24l-3.83 9.58h-3.09zm7.08-10.01h8.9l-4.45-11.15-4.45 11.15zm32.5 10.01h-3.09l-4.54-8.93c-.34-.68-.9-1.08-1.67-1.08-.93 0-2.44.71-3.83 1.98v8.03h-3.09V.53h8.87c4.42 0 6.4 2.6 6.4 5.35 0 2.6-1.67 5.47-5.1 6.06.9.34 1.39.77 1.76 1.54l4.29 8.74zM150.47 6.4c0-2.87-1.79-5.44-5.53-5.44h-3.86v12.79c1.54-1.3 3.4-2.29 5.19-2.19 2.66.12 4.2-2.47 4.2-5.16z" fill="#fff"/></g></symbol></svg>